<?xml version="1.0" encoding="UTF-8" standalone="no"?>
<!DOCTYPE svg PUBLIC "-//W3C//DTD SVG 1.1//EN"
 "http://www.w3.org/Graphics/SVG/1.1/DTD/svg11.dtd">
<!-- Generated by graphviz version 2.44.1 (20200629.0846)
 -->
<!-- Title: dependencies Pages: 1 -->
<svg width="536pt" height="211pt"
 viewBox="0.00 0.00 536.00 211.00" xmlns="http://www.w3.org/2000/svg" xmlns:xlink="http://www.w3.org/1999/xlink">
<g id="graph0" class="graph" transform="scale(1 1) rotate(0) translate(4 207)">
<title>dependencies</title>
<polygon fill="white" stroke="transparent" points="-4,4 -4,-207 532,-207 532,4 -4,4"/>
<text text-anchor="start" x="243.01" y="-42.4" font-family="sans-serif" font-weight="bold" font-size="14.00">Legend</text>
<polygon fill="#ffffb3" stroke="transparent" points="30,-10 30,-30 50,-30 50,-10 30,-10"/>
<text text-anchor="start" x="53.63" y="-15.4" font-family="sans-serif" font-size="14.00"> &#160;Declarations</text>
<polygon fill="#8dd3c7" stroke="transparent" points="143,-10 143,-30 163,-30 163,-10 143,-10"/>
<text text-anchor="start" x="166.73" y="-15.4" font-family="sans-serif" font-size="14.00"> &#160;Module</text>
<polygon fill="#80b1d3" stroke="transparent" points="229,-10 229,-30 249,-30 249,-10 229,-10"/>
<text text-anchor="start" x="252.78" y="-15.4" font-family="sans-serif" font-size="14.00"> &#160;Bootstrap</text>
<polygon fill="#fdb462" stroke="transparent" points="326,-10 326,-30 346,-30 346,-10 326,-10"/>
<text text-anchor="start" x="349.67" y="-15.4" font-family="sans-serif" font-size="14.00"> &#160;Providers</text>
<polygon fill="#fb8072" stroke="transparent" points="422,-10 422,-30 442,-30 442,-10 422,-10"/>
<text text-anchor="start" x="445.73" y="-15.4" font-family="sans-serif" font-size="14.00"> &#160;Exports</text>
<g id="clust1" class="cluster">
<title>cluster_LoginModule</title>
<polygon fill="none" stroke="black" stroke-dasharray="1,5" points="8,-70 8,-195 520,-195 520,-70 8,-70"/>
</g>
<g id="clust5" class="cluster">
<title>cluster_LoginModule_imports</title>
<polygon fill="none" stroke="black" points="358,-78 358,-130 512,-130 512,-78 358,-78"/>
</g>
<g id="clust2" class="cluster">
<title>cluster_LoginModule_declarations</title>
<polygon fill="none" stroke="black" points="16,-78 16,-130 350,-130 350,-78 16,-78"/>
</g>
<!-- PageSignInComponent -->
<g id="node1" class="node">
<title>PageSignInComponent</title>
<polygon fill="#ffffb3" stroke="black" points="341.88,-122 196.12,-122 196.12,-86 341.88,-86 341.88,-122"/>
<text text-anchor="middle" x="269" y="-99.8" font-family="Times,serif" font-size="14.00">PageSignInComponent</text>
</g>
<!-- LoginModule -->
<g id="node3" class="node">
<title>LoginModule</title>
<polygon fill="#8dd3c7" stroke="black" points="315.49,-187 312.49,-191 291.49,-191 288.49,-187 222.51,-187 222.51,-151 315.49,-151 315.49,-187"/>
<text text-anchor="middle" x="269" y="-164.8" font-family="Times,serif" font-size="14.00">LoginModule</text>
</g>
<!-- PageSignInComponent&#45;&gt;LoginModule -->
<g id="edge1" class="edge">
<title>PageSignInComponent&#45;&gt;LoginModule</title>
<path fill="none" stroke="black" d="M269,-122.11C269,-122.11 269,-140.99 269,-140.99"/>
<polygon fill="black" stroke="black" points="265.5,-140.99 269,-150.99 272.5,-140.99 265.5,-140.99"/>
</g>
<!-- PageSignOffComponent -->
<g id="node2" class="node">
<title>PageSignOffComponent</title>
<polygon fill="#ffffb3" stroke="black" points="177.65,-122 24.35,-122 24.35,-86 177.65,-86 177.65,-122"/>
<text text-anchor="middle" x="101" y="-99.8" font-family="Times,serif" font-size="14.00">PageSignOffComponent</text>
</g>
<!-- PageSignOffComponent&#45;&gt;LoginModule -->
<g id="edge2" class="edge">
<title>PageSignOffComponent&#45;&gt;LoginModule</title>
<path fill="none" stroke="black" d="M101,-122.11C101,-141.34 101,-169 101,-169 101,-169 212.2,-169 212.2,-169"/>
<polygon fill="black" stroke="black" points="212.2,-172.5 222.2,-169 212.2,-165.5 212.2,-172.5"/>
</g>
<!-- LoginRoutingModule -->
<g id="node4" class="node">
<title>LoginRoutingModule</title>
<polygon fill="#8dd3c7" stroke="black" points="504.11,-122 501.11,-126 480.11,-126 477.11,-122 365.89,-122 365.89,-86 504.11,-86 504.11,-122"/>
<text text-anchor="middle" x="435" y="-99.8" font-family="Times,serif" font-size="14.00">LoginRoutingModule</text>
</g>
<!-- LoginRoutingModule&#45;&gt;LoginModule -->
<g id="edge3" class="edge">
<title>LoginRoutingModule&#45;&gt;LoginModule</title>
<path fill="none" stroke="black" d="M435,-122.11C435,-141.34 435,-169 435,-169 435,-169 325.68,-169 325.68,-169"/>
<polygon fill="black" stroke="black" points="325.68,-165.5 315.68,-169 325.68,-172.5 325.68,-165.5"/>
</g>
</g>
</svg>
